<?xml version="1.0"?>
<svg width="150" height="150" xmlns="http://www.w3.org/2000/svg" xmlns:svg="http://www.w3.org/2000/svg" enable-background="new 0 0 441 147" version="1.0" xml:space="preserve">
 <metadata id="metadata30">image/svg+xml</metadata>

 <g class="layer">
  <title>Layer 1</title>
  <path clip-rule="evenodd" d="m19.2,46.94c0,0 7.58,-0.33 16.4,0.14c2.45,0.14 5.11,0.27 7.61,0.55c3.13,0.36 6.1,0.94 9.03,1.67c5.99,1.5 10.31,3.71 13.88,5.91c4.39,2.72 7.33,5.34 7.33,5.34c0,0 2.57,-4.58 2.92,-11.23c0.21,-4.2 -0.47,-9.33 -2.22,-13.73c-0.67,-1.69 -1.61,-3.27 -2.57,-4.65c-3.04,-4.47 -8.07,-8.22 -13.25,-10.12c-2.75,-1 -5.91,-1.72 -8.74,-2.13c-4.2,-0.61 -7.61,-0.62 -7.61,-0.62l-22.77,0l0,28.88m-19.2,-46.81c0,0 8.91,0 22.95,0.08c3.74,0.03 8.66,-0.23 13.18,-0.2c6.61,0.06 12.39,0.2 12.39,0.2s12.07,0.26 23.13,5.58c8.5,4.07 15.79,11.95 20.26,20.85c4.07,8.15 5.23,21.63 2.74,31.71c-2.51,10.09 -8.5,16.8 -8.5,16.8s7.83,8.16 9.68,20.9c1.95,13.31 -1.02,22.34 -4.39,29.21c-7.2,14.65 -21.98,20.31 -26.07,21.61c-2.81,0.88 -6.72,1.85 -10.72,2.34c-3.15,0.38 -8.75,0.64 -13.77,0.7c-5.59,0.06 -13.45,-0.2 -13.45,-0.2l-27.45,-0.05l0.02,-65.02l35.22,0c0,0 3.71,0.12 7.99,-0.5c2.36,-0.35 4.85,-1.03 7.05,-1.82c2.8,-1 5.32,-2.23 7.25,-3.53c2.93,-1.95 4.61,-3.88 4.61,-3.88s-1.14,-1.25 -3.62,-2.89c-1.84,-1.23 -4.54,-2.72 -7.4,-3.77c-3.37,-1.26 -7.63,-2.25 -11.35,-2.77c-3.75,-0.52 -6.98,-0.58 -6.98,-0.58l-32.77,0.02l0,-64.8zm19.39,131.17l0,-28.45c0,0 7.57,0.35 16.39,-0.15c2.46,-0.14 5.11,-0.26 7.61,-0.55c3.13,-0.36 6.11,-0.94 9.03,-1.66c6,-1.5 10.32,-4.1 13.89,-6.31c4.39,-2.72 7.31,-4.94 7.31,-4.94s2.57,4.56 2.92,11.23c0.29,5.81 -1.37,13.39 -4.77,18.38c-3.04,4.47 -8.06,8.21 -13.25,10.12c-6.85,2.51 -16.35,2.33 -16.35,2.33l-22.77,0z" fill="#8E192A" fill-rule="evenodd" id="path23"/>
 </g>
</svg>