<?xml version="1.0" standalone="no"?>
<!DOCTYPE svg PUBLIC "-//W3C//DTD SVG 1.1//EN" "http://www.w3.org/Graphics/SVG/1.1/DTD/svg11.dtd">
<svg version="1.1" xmlns="http://www.w3.org/2000/svg" viewBox="0 0 314.8604310678311 767.1235825565573" width="314.8604310678311" height="767.1235825565573"><!-- svg-source:excalidraw --><metadata></metadata><defs><style class="style-fonts">
      </style></defs><g stroke-linecap="round" transform="translate(43.449774926113605 194.5543447057521) rotate(0 101.80206731672115 93.69908415170426)"><path d="M138.07 6.94 C150.02 9.69, 162.85 17.4, 172.33 25.47 C181.8 33.53, 189.75 44.2, 194.91 55.34 C200.08 66.48, 203.15 80.31, 203.33 92.3 C203.51 104.29, 200.54 116.13, 195.99 127.27 C191.44 138.41, 185.07 150.28, 176.03 159.14 C166.98 168, 153.79 175.62, 141.73 180.43 C129.66 185.24, 116.52 188, 103.61 187.98 C90.7 187.96, 76.36 184.68, 64.28 180.29 C52.21 175.9, 40.51 169.89, 31.13 161.65 C21.75 153.41, 13.18 142.01, 7.99 130.85 C2.81 119.69, 0.06 106.47, 0 94.68 C-0.06 82.88, 2.95 70.98, 7.63 60.09 C12.31 49.19, 19.35 38, 28.1 29.3 C36.85 20.6, 48.15 12.77, 60.14 7.87 C72.14 2.97, 85.35 -0.51, 100.08 -0.11 C114.82 0.29, 139.25 7.34, 148.55 10.29 C157.84 13.23, 156.74 16.29, 155.85 17.55 M101.36 -0.97 C113.44 -2.61, 127.6 1.62, 139.23 6.17 C150.85 10.71, 161.87 18.02, 171.1 26.31 C180.34 34.6, 189.25 44.77, 194.62 55.92 C199.98 67.08, 203.07 81.26, 203.31 93.26 C203.55 105.26, 200.67 116.95, 196.04 127.93 C191.41 138.91, 184.52 150.57, 175.53 159.15 C166.53 167.74, 154.08 174.86, 142.05 179.46 C130.01 184.07, 116.22 186.73, 103.3 186.8 C90.38 186.87, 76.41 184.23, 64.51 179.91 C52.6 175.59, 41.2 169.21, 31.87 160.88 C22.54 152.55, 13.65 140.69, 8.53 129.93 C3.41 119.16, 1.37 107.87, 1.15 96.29 C0.94 84.71, 2.71 71.87, 7.25 60.43 C11.78 48.98, 19.39 36.35, 28.36 27.59 C37.32 18.84, 49.31 12.5, 61.06 7.9 C72.8 3.3, 92.4 1, 98.83 -0.03 C105.26 -1.05, 99.59 0.08, 99.63 1.74" stroke="#000000" stroke-width="2" fill="none"></path></g><g stroke-linecap="round"><g transform="translate(136.87007565030217 380.9099891508581) rotate(0 -4.995250798197958 113.59429105216282)"><path d="M0.9 0.68 C-0.92 38.33, -8.76 188.36, -10.48 226.09 M-0.09 0 C-2.15 37.74, -10.05 188.99, -11.68 227.05" stroke="#000000" stroke-width="2" fill="none"></path></g></g><mask></mask><g stroke-linecap="round"><g transform="translate(124.95813275075125 617.2149351251142) rotate(0 44.966790105158 69.27573960020686)"><path d="M-0.49 -1.1 C14.44 21.86, 75.57 115.2, 90.49 138.43 M1.46 0.93 C16.2 24.03, 74.83 116.81, 89.83 139.91" stroke="#000000" stroke-width="2" fill="none"></path></g></g><mask></mask><g stroke-linecap="round"><g transform="translate(122.15745524593513 613.2427148612633) rotate(0 -43.29168843201114 59.3094646424845)"><path d="M0.55 -0.12 C-13.94 19.8, -72.78 98.65, -87.48 118.39 M-0.61 -1.23 C-14.7 18.97, -71.12 99.69, -85.24 119.8" stroke="#000000" stroke-width="2" fill="none"></path></g></g><mask></mask><g stroke-linecap="round"><g transform="translate(46.832996855191595 425.5687374914737) rotate(0 43.67984572012574 41.92578818793322)"><path d="M-0.9 -0.23 C13.39 13.71, 71.52 69.64, 86.3 83.54 M0.83 -1.4 C15.44 12.73, 74.05 70.66, 88.45 84.91" stroke="#000000" stroke-width="2" fill="none"></path></g></g><mask></mask><g stroke-linecap="round"><g transform="translate(141.33230806745996 510.03295654454905) rotate(0 62.9458798101241 -35.50059918414354)"><path d="M-1.06 -0.31 C20.14 -12.22, 105.29 -60.1, 126.32 -71.7 M0.58 -1.52 C21.74 -13.27, 104.42 -58.83, 125.59 -70.53" stroke="#000000" stroke-width="2" fill="none"></path></g></g><mask></mask><g stroke-linecap="round"><g transform="translate(10.809746055325377 212.32910383486842) rotate(0 146.26583922231475 29.75768579498549)"><path d="M0.43 -0.7 C49.23 9.45, 242.98 50.72, 291.75 60.6 M-0.81 1.55 C48.47 11.42, 245.15 49.4, 294.05 59.04" stroke="#000000" stroke-width="2" fill="none"></path></g></g><mask></mask><g stroke-linecap="round" transform="translate(103.91425038505258 22.198292254489843) rotate(10.74366233694554 75.40124054638545 105.97637546555939)"><path d="M0.13 -1.48 L152.32 1.3 L151.01 213.4 L-0.31 210.62" stroke="none" stroke-width="0" fill="#fff"></path><path d="M0 0 C52.39 1.86, 99.6 2.69, 150.8 0 M0 0 C43.07 0.45, 87.86 0, 150.8 0 M150.8 0 C151.82 57.85, 150.1 114.6, 150.8 211.95 M150.8 0 C150.79 43.79, 150.83 87, 150.8 211.95 M150.8 211.95 C92.32 212.65, 33.45 212.47, 0 211.95 M150.8 211.95 C114.53 211.59, 79.8 211.3, 0 211.95 M0 211.95 C-1.61 152.91, -1.04 92.28, 0 0 M0 211.95 C0.34 150.25, 0.79 89.56, 0 0" stroke="#000000" stroke-width="2" fill="none"></path></g><g stroke-linecap="round"><g transform="translate(146.2057471325461 329.0899481813667) rotate(0 3.6408027834422683 20.36368936643612)" fill-rule="evenodd"><path d="M-1.99 -0.08 C10.38 4.65, 58.42 23.29, 76.38 27.23 C94.34 31.18, 97.43 26.67, 105.77 23.58 C114.11 20.49, 126.12 4.82, 126.42 8.7 C126.73 12.58, 116.7 40.26, 107.6 46.86 C98.5 53.46, 89.94 50.8, 71.81 48.32 C53.67 45.85, 23.57 33.4, -1.2 32.03 C-25.97 30.66, -57.31 46.72, -76.8 40.09 C-96.3 33.47, -118.21 -3.94, -118.16 -7.73 C-118.11 -11.53, -96.14 16.18, -76.52 17.31 C-56.9 18.44, -13.18 2.19, -0.42 -0.95" stroke="none" stroke-width="0" fill="#000" fill-rule="evenodd"></path><path d="M0.53 -0.95 C13.17 3.5, 57.74 23.47, 75.04 27.76 C92.35 32.05, 95.94 27.88, 104.35 24.8 C112.77 21.71, 124.5 5.66, 125.52 9.24 C126.54 12.81, 119.36 39.63, 110.49 46.26 C101.63 52.89, 91.02 51.58, 72.33 49.01 C53.63 46.44, 22.92 32.36, -1.68 30.83 C-26.29 29.31, -55.87 46.57, -75.3 39.85 C-94.73 33.14, -118.17 -5.76, -118.27 -9.43 C-118.38 -13.11, -95.61 16.21, -75.93 17.82 C-56.24 19.43, -12.79 3.26, -0.15 0.24 M-0.65 1.16 C11.98 6.32, 57.2 25.11, 74.63 29.23 C92.07 33.36, 95.51 29.06, 103.96 25.9 C112.42 22.75, 124.48 6.9, 125.37 10.31 C126.26 13.71, 117.95 40.06, 109.32 46.34 C100.68 52.61, 92.01 50.71, 73.54 47.96 C55.06 45.22, 23.38 31.31, -1.53 29.86 C-26.44 28.41, -56.27 45.54, -75.94 39.27 C-95.61 33.01, -119.7 -4.12, -119.57 -7.75 C-119.43 -11.38, -95.07 15.97, -75.12 17.49 C-55.18 19.01, -12.17 4.41, 0.09 1.34" stroke="#000000" stroke-width="1" fill="none"></path></g></g><mask></mask><g stroke-linecap="round" transform="translate(65.53758981738429 252.26421083681134) rotate(0 33.35107436696853 26.5578252271348)"><path d="M43.12 1.64 C49.7 2.96, 56.97 7.25, 60.86 11.82 C64.74 16.39, 67.13 23.27, 66.43 29.07 C65.73 34.87, 61.94 42.53, 56.64 46.63 C51.34 50.73, 42.04 53.49, 34.65 53.68 C27.26 53.87, 17.89 51.34, 12.28 47.79 C6.68 44.23, 2.43 37.92, 1.03 32.36 C-0.37 26.79, 0.68 19.27, 3.86 14.37 C7.04 9.47, 12.77 5.02, 20.11 2.96 C27.45 0.91, 42.47 1.43, 47.91 2.04 C53.35 2.65, 52.97 5.92, 52.75 6.6 M21.14 1.42 C27.32 -0.66, 37.97 -0.89, 44.83 1.35 C51.68 3.6, 58.82 9.88, 62.28 14.91 C65.74 19.94, 66.85 26.11, 65.6 31.56 C64.35 37, 60.33 44.03, 54.78 47.59 C49.24 51.15, 39.63 53.21, 32.36 52.94 C25.09 52.67, 16.47 49.85, 11.15 45.97 C5.83 42.1, 1.36 35.24, 0.44 29.68 C-0.49 24.12, 1.9 17.51, 5.61 12.62 C9.32 7.72, 19.62 1.93, 22.67 0.31 C25.72 -1.3, 23.74 2.12, 23.93 2.91" stroke="#000000" stroke-width="1" fill="none"></path></g><g stroke-linecap="round" transform="translate(95.80542546731886 273.21307962021274) rotate(0 1.7400560539281287 2.2849220910175063)"><path d="M1.39 -0.09 C1.74 -0.24, 2.34 -0.2, 2.71 0.13 C3.08 0.46, 3.53 1.31, 3.61 1.86 C3.69 2.41, 3.44 3, 3.2 3.41 C2.97 3.83, 2.49 4.18, 2.19 4.36 C1.89 4.53, 1.68 4.59, 1.38 4.46 C1.09 4.34, 0.64 3.94, 0.4 3.6 C0.15 3.26, -0.07 2.95, -0.09 2.42 C-0.1 1.89, 0.05 0.78, 0.33 0.43 C0.6 0.08, 1.38 0.34, 1.58 0.33 C1.78 0.32, 1.57 0.35, 1.54 0.34 M1.49 -0.14 C1.9 -0.13, 2.41 0.55, 2.71 0.87 C3.01 1.18, 3.16 1.32, 3.28 1.75 C3.41 2.19, 3.62 3.03, 3.45 3.46 C3.29 3.89, 2.68 4.21, 2.29 4.34 C1.9 4.48, 1.46 4.46, 1.13 4.27 C0.79 4.07, 0.42 3.58, 0.28 3.18 C0.14 2.79, 0.23 2.4, 0.28 1.91 C0.34 1.42, 0.31 0.49, 0.6 0.22 C0.9 -0.04, 1.86 0.3, 2.05 0.33 C2.24 0.36, 1.8 0.48, 1.72 0.41" stroke="#000000" stroke-width="1" fill="none"></path></g><g stroke-linecap="round" transform="translate(187.36049602205458 281.1048489961113) rotate(0 1.7576323777066136 2.9879750420998334)"><path d="M1.89 -0.25 C2.31 -0.19, 2.94 0.53, 3.19 1.06 C3.43 1.58, 3.43 2.29, 3.38 2.9 C3.33 3.5, 3.07 4.21, 2.89 4.69 C2.71 5.18, 2.59 5.66, 2.29 5.82 C1.99 5.99, 1.46 5.89, 1.1 5.68 C0.73 5.47, 0.28 5.19, 0.08 4.57 C-0.12 3.95, -0.21 2.59, -0.11 1.97 C0 1.36, 0.4 1.16, 0.72 0.88 C1.05 0.6, 1.66 0.43, 1.83 0.3 C2 0.17, 1.73 0.15, 1.72 0.1 M1.66 0.39 C2.03 0.37, 2.4 0.29, 2.73 0.65 C3.06 1.02, 3.59 1.96, 3.66 2.59 C3.73 3.21, 3.4 3.92, 3.17 4.42 C2.94 4.93, 2.61 5.43, 2.27 5.6 C1.94 5.78, 1.46 5.67, 1.17 5.47 C0.87 5.28, 0.69 4.98, 0.5 4.41 C0.32 3.85, -0.02 2.66, 0.06 2.1 C0.14 1.53, 0.72 1.32, 1.01 1.03 C1.3 0.74, 1.7 0.58, 1.81 0.36 C1.92 0.15, 1.7 -0.27, 1.68 -0.27" stroke="#000000" stroke-width="1" fill="none"></path></g></svg>