<?xml version="1.0" standalone="no"?>
<!DOCTYPE svg PUBLIC "-//W3C//DTD SVG 1.1//EN" "http://www.w3.org/Graphics/SVG/1.1/DTD/svg11.dtd">
<svg version="1.1" xmlns="http://www.w3.org/2000/svg" viewBox="0 0 402.3340202644504 658.200598812622" width="402.3340202644504" height="658.200598812622"><!-- svg-source:excalidraw --><metadata></metadata><defs><style class="style-fonts">
      </style></defs><g stroke-linecap="round"><g transform="translate(85.92001335664463 129.5492162409305) rotate(0 108.93070578152037 74.86510324620804)" fill-rule="evenodd"><path d="M0 0 C0 0, 0 0, 0 0 M0 0 C0 0, 0 0, 0 0 M1.05 4.89 C1.71 3.61, 3.54 1.41, 5.64 -0.39 M1.05 4.89 C2.37 3.75, 3.24 2.87, 5.64 -0.39 M2.1 9.78 C4.83 5.69, 8.79 2.64, 11.94 -1.54 M2.1 9.78 C4.82 6.79, 7.47 3.58, 11.94 -1.54 M3.15 14.67 C8.59 8.58, 12.81 5.78, 17.59 -1.94 M3.15 14.67 C7.15 10.3, 8.99 7.95, 17.59 -1.94 M4.2 19.55 C7.14 16.72, 14.07 9.39, 23.23 -2.33 M4.2 19.55 C9.61 12.73, 17.45 5.61, 23.23 -2.33 M5.25 24.44 C15.1 14.86, 21.67 4.63, 28.87 -2.73 M5.25 24.44 C10.08 19.75, 15.46 12.63, 28.87 -2.73 M6.3 29.33 C16.51 18.73, 23.04 7.33, 35.17 -3.88 M6.3 29.33 C14.24 18.72, 22.29 9.12, 35.17 -3.88 M7.35 34.22 C15.32 26.13, 23.4 16.7, 40.81 -4.27 M7.35 34.22 C21.04 19.1, 33.31 5.83, 40.81 -4.27 M9.06 38.35 C23.64 22.72, 37.28 6.74, 46.46 -4.67 M9.06 38.35 C20.24 24.64, 30.77 13.78, 46.46 -4.67 M10.11 43.24 C24.08 26.61, 39.32 10.87, 52.1 -5.06 M10.11 43.24 C21.13 30.87, 33.05 16.29, 52.1 -5.06 M11.16 48.13 C28.31 27.93, 45.9 7, 58.4 -6.21 M11.16 48.13 C28.09 27.91, 46.21 6.97, 58.4 -6.21 M12.21 53.02 C24.65 38.53, 33.62 28.1, 64.04 -6.6 M12.21 53.02 C28.49 34.1, 45.14 15.89, 64.04 -6.6 M13.26 57.91 C31.31 35.38, 52.32 11.89, 69.69 -7 M13.26 57.91 C25.69 44.9, 37.48 30.14, 69.69 -7 M14.31 62.79 C35.35 38.06, 55.19 16.21, 75.33 -7.39 M14.31 62.79 C31.5 44.08, 47.16 25.65, 75.33 -7.39 M15.37 67.68 C32.37 48.77, 51.17 27.75, 81.63 -8.54 M15.37 67.68 C37.88 39.26, 62.52 12.47, 81.63 -8.54 M16.42 72.57 C40.92 44.36, 65.95 17.14, 87.27 -8.94 M16.42 72.57 C45.92 39.29, 73.28 6.63, 87.27 -8.94 M17.47 77.46 C45.53 45.01, 70.22 12.58, 92.91 -9.33 M17.47 77.46 C34.96 60.2, 50.05 41.8, 92.91 -9.33 M18.52 82.35 C49.21 47.01, 78.39 15.79, 98.56 -9.73 M18.52 82.35 C43.15 53.81, 68.68 26.5, 98.56 -9.73 M19.57 87.24 C40.81 63.5, 61.46 41.4, 104.86 -10.88 M19.57 87.24 C43.02 58.94, 66.8 30.65, 104.86 -10.88 M20.62 92.12 C54.32 50.16, 89.79 10.7, 110.5 -11.27 M20.62 92.12 C44.89 64.41, 70.43 35.08, 110.5 -11.27 M21.67 97.01 C56.61 58.55, 91.26 20.35, 116.14 -11.67 M21.67 97.01 C51.15 63.87, 80.68 28.96, 116.14 -11.67 M22.72 101.9 C51.02 67.92, 79.57 38.62, 121.78 -12.06 M22.72 101.9 C59.65 61.15, 94.7 19.2, 121.78 -12.06 M23.77 106.79 C57.72 66.4, 87.75 32.59, 128.08 -13.21 M23.77 106.79 C58 67.43, 94.13 26.18, 128.08 -13.21 M24.82 111.68 C55.62 74.32, 90.02 36.8, 133.73 -13.6 M24.82 111.68 C58.18 76.99, 87.93 39.55, 133.73 -13.6 M26.53 115.81 C70.95 68.14, 112.95 17.39, 139.37 -14 M26.53 115.81 C50.3 86.5, 75.18 57.71, 139.37 -14 M27.58 120.7 C58.69 83.8, 86.26 49.66, 145.67 -15.15 M27.58 120.7 C65.56 76.67, 103.86 33.35, 145.67 -15.15 M28.63 125.59 C54.86 96, 78.56 69.38, 151.31 -15.54 M28.63 125.59 C72.39 76.34, 114.6 27.24, 151.31 -15.54 M29.68 130.48 C73.56 81.26, 113.64 31.89, 156.96 -15.94 M29.68 130.48 C58.02 97.24, 88.29 63.69, 156.96 -15.94 M30.73 135.36 C63.01 98.75, 94.07 62.25, 162.6 -16.33 M30.73 135.36 C69.99 88.1, 109.78 40.83, 162.6 -16.33 M31.78 140.25 C61.8 104.43, 94.63 67.12, 168.9 -17.48 M31.78 140.25 C75.42 88.94, 118.48 38.81, 168.9 -17.48 M32.83 145.14 C84.01 84.65, 133.18 26.71, 174.54 -17.88 M32.83 145.14 C63.86 111.11, 95.19 75.17, 174.54 -17.88 M33.88 150.03 C71.71 103.18, 112.51 60.94, 180.18 -18.27 M33.88 150.03 C89.4 86.78, 145.91 21.17, 180.18 -18.27 M34.93 154.92 C72.66 111.08, 108.67 69.68, 185.83 -18.66 M34.93 154.92 C65.84 119.06, 98.65 81.19, 185.83 -18.66 M35.98 159.81 C73.9 113.86, 114.02 71.73, 192.13 -19.81 M35.98 159.81 C95.21 95.32, 152.97 28.64, 192.13 -19.81 M37.03 164.69 C93.44 97.65, 151.28 35.21, 197.77 -20.21 M37.03 164.69 C92.41 101.35, 146.43 38.15, 197.77 -20.21 M38.09 169.58 C70.95 131.57, 105.2 92.2, 203.41 -20.6 M38.09 169.58 C87.74 112.56, 138.46 54.64, 203.41 -20.6 M41.1 172.21 C76.91 132.35, 111.6 90.73, 209.06 -21 M41.1 172.21 C86.73 120.43, 131.58 67.88, 209.06 -21 M46.75 171.81 C90.76 121.92, 133.61 69.49, 215.35 -22.15 M46.75 171.81 C108.43 99.21, 170.79 29.64, 215.35 -22.15 M53.05 170.66 C100.12 117.52, 148.75 62.62, 217.06 -18.01 M53.05 170.66 C115.09 99.5, 176.2 28.31, 217.06 -18.01 M58.69 170.27 C117.86 104.41, 176.05 36.91, 214.83 -9.35 M58.69 170.27 C90.35 133.25, 124.42 95.46, 214.83 -9.35 M64.99 169.12 C113.16 115.45, 159.07 58.28, 213.26 -1.44 M64.99 169.12 C105.93 124.62, 144.53 79.01, 213.26 -1.44 M70.63 168.73 C123.46 109.17, 176.01 46.8, 211.68 6.46 M70.63 168.73 C106.7 124.13, 145.37 80.47, 211.68 6.46 M76.27 168.33 C130.29 109.79, 179.08 50.98, 209.45 15.12 M76.27 168.33 C111.39 129.39, 145.37 89.76, 209.45 15.12 M82.57 167.18 C123.08 122.5, 165.89 74.84, 207.88 23.03 M82.57 167.18 C109.88 134.82, 138.04 102.21, 207.88 23.03 M88.22 166.79 C119.4 135.99, 148.23 100.22, 205.65 31.69 M88.22 166.79 C121.38 129.17, 154.78 91.22, 205.65 31.69 M94.52 165.64 C140.48 116.36, 184.21 65.08, 204.08 39.6 M94.52 165.64 C130.7 124.33, 165.47 83.82, 204.08 39.6 M100.16 165.24 C119.45 142.1, 140.22 118.42, 201.85 48.26 M100.16 165.24 C138.14 120.8, 178.76 75.27, 201.85 48.26 M105.8 164.85 C137.11 127.1, 172.99 86.26, 200.27 56.17 M105.8 164.85 C135.11 130.9, 163.51 98.07, 200.27 56.17 M112.1 163.7 C131.38 141.28, 149.73 123.12, 198.05 64.83 M112.1 163.7 C133.66 138.94, 156.29 113.8, 198.05 64.83 M117.74 163.3 C139.39 135.57, 161.88 111.64, 196.47 72.74 M117.74 163.3 C136.02 141.05, 155.86 118.2, 196.47 72.74 M124.04 162.15 C135.91 147.02, 151.93 127.89, 194.24 81.4 M124.04 162.15 C141.92 140.83, 161.03 119.92, 194.24 81.4 M129.69 161.76 C147.46 144.07, 163.52 123.14, 192.67 89.31 M129.69 161.76 C150.71 137.39, 171.33 114.9, 192.67 89.31 M135.99 160.61 C155.83 138.06, 176.06 116.64, 190.44 97.97 M135.99 160.61 C147.07 146.18, 160.25 132.23, 190.44 97.97 M141.63 160.22 C154.84 142.87, 170.84 129.29, 188.87 105.88 M141.63 160.22 C153.07 147.63, 164.25 135.62, 188.87 105.88 M147.27 159.82 C161.86 143.81, 176.16 123.31, 186.64 114.54 M147.27 159.82 C157.88 148.11, 166.12 138.67, 186.64 114.54 M153.57 158.67 C166.13 145.99, 177.38 132.77, 185.06 122.45 M153.57 158.67 C165.8 143.55, 177.63 130.26, 185.06 122.45 M159.21 158.28 C168.44 148.32, 176.9 138.32, 183.49 130.35 M159.21 158.28 C166.36 151.47, 171.49 143.37, 183.49 130.35 M165.51 157.13 C167.6 151.59, 174.58 148.9, 181.26 139.02 M165.51 157.13 C170.12 151.76, 176.72 143.57, 181.26 139.02 M171.16 156.73 C173.58 153.91, 176.84 151.2, 179.69 146.92 M171.16 156.73 C174.49 153.6, 177.46 149.99, 179.69 146.92" stroke="#000000" stroke-width="0.5" fill="none"></path><path d="M0 0 C9 56.98, 24.84 111.66, 38.82 171.91 M0 0 C12.43 57.44, 25.89 115.87, 38.82 171.91 M38.82 171.91 C71.88 165.68, 102.87 161.53, 177.46 155.28 M38.82 171.91 C82.52 164.76, 126.27 159.52, 177.46 155.28 M177.46 155.28 C190.22 87.06, 206.96 19.14, 217.86 -22.18 M177.46 155.28 C191.38 93.38, 204.48 30.57, 217.86 -22.18 M217.86 -22.18 C147.54 -15.18, 77.55 -7.13, 0 0 M217.86 -22.18 C173.54 -17.98, 128.21 -12.5, 0 0 M0 0 C0 0, 0 0, 0 0 M0 0 C0 0, 0 0, 0 0" stroke="#000000" stroke-width="1" fill="none"></path></g></g><mask></mask><g stroke-linecap="round"><g transform="translate(210.97960116159447 135.83369991913833) rotate(23.42386081608205 -10.030688492293848 -44.111413562770394)"><path d="M0.74 0.81 C-2.43 -6.55, -17.03 -30.65, -19.81 -45.33 C-22.59 -60.01, -16.78 -80.09, -15.95 -87.28 M-0.33 0.18 C-3.56 -7.44, -18.44 -32.33, -20.62 -47.22 C-22.81 -62.1, -14.47 -82.41, -13.43 -89.13" stroke="#000000" stroke-width="1" fill="none"></path></g></g><mask></mask><g stroke-linecap="round" transform="translate(214.42951328081108 9.79212313753078) rotate(16.854735252326623 17.13002817134111 19.765417120778466)"><path d="M3.77 7.25 C3.77 7.25, 3.77 7.25, 3.77 7.25 M3.77 7.25 C3.77 7.25, 3.77 7.25, 3.77 7.25 M0.23 17.42 C5.21 12.18, 10.77 5.34, 14.66 0.82 M0.23 17.42 C5.55 11.87, 9.73 6.15, 14.66 0.82 M1.28 22.31 C6 17.24, 12.33 10.83, 18.99 1.93 M1.28 22.31 C7.76 15, 13.4 7.96, 18.99 1.93 M2.33 27.2 C9.63 17.82, 17.5 9.86, 23.98 2.29 M2.33 27.2 C10.12 19.32, 17.33 10.17, 23.98 2.29 M4.03 31.33 C13.69 21.32, 23.75 9.12, 27.65 4.16 M4.03 31.33 C10.59 23.6, 16.53 17.1, 27.65 4.16 M7.05 33.96 C14.77 24.87, 23.33 14.58, 30.02 7.54 M7.05 33.96 C16.59 23.64, 25.67 12.97, 30.02 7.54 M10.07 36.58 C14.82 30.21, 20.24 25.54, 32.38 10.92 M10.07 36.58 C17.55 28.21, 25.12 19.66, 32.38 10.92 M13.09 39.21 C18.24 33.53, 23.48 25.91, 34.74 14.3 M13.09 39.21 C17.68 33.83, 23.09 28.13, 34.74 14.3 M18.73 38.81 C23.35 32.68, 30.09 26.03, 34.48 20.7 M18.73 38.81 C24.1 32.85, 28.94 27.28, 34.48 20.7" stroke="#000000" stroke-width="0.5" fill="none"></path><path d="M14.48 0.58 C17.85 -0.35, 22.97 0.36, 26.19 2.58 C29.42 4.81, 32.66 9.9, 33.84 13.92 C35.02 17.95, 34.71 22.91, 33.26 26.72 C31.8 30.53, 28.36 34.67, 25.12 36.79 C21.88 38.9, 17.31 40.22, 13.81 39.41 C10.31 38.6, 6.47 35.33, 4.1 31.91 C1.74 28.49, -0.37 23.04, -0.4 18.9 C-0.43 14.76, 1.24 10.21, 3.92 7.07 C6.61 3.94, 13.71 1.22, 15.71 0.08 C17.71 -1.06, 15.95 -0.04, 15.92 0.25 M19.68 0.59 C23.04 0.81, 26.82 3.31, 29.28 6.42 C31.74 9.53, 34.17 15.01, 34.43 19.27 C34.69 23.53, 33.13 28.57, 30.84 31.97 C28.55 35.37, 24.27 38.91, 20.7 39.69 C17.13 40.46, 12.59 38.69, 9.43 36.62 C6.28 34.55, 3.14 31.05, 1.77 27.26 C0.4 23.46, 0.17 17.74, 1.2 13.84 C2.24 9.94, 4.93 6.26, 7.97 3.87 C11.01 1.48, 17.53 0.06, 19.44 -0.5 C21.36 -1.07, 19.63 0.02, 19.48 0.49" stroke="#000000" stroke-width="1" fill="none"></path></g><g stroke-linecap="round"><g transform="translate(224.88064732759085 314.08849689969475) rotate(356.02471234182775 -13.616743639928245 154.15287171911132)" fill-rule="evenodd"><path d="M-98.12 27.33 C-98.12 27.33, -98.12 27.33, -98.12 27.33 M-98.12 27.33 C-98.12 27.33, -98.12 27.33, -98.12 27.33 M-100.35 35.99 C-96.29 29.91, -89.28 24.79, -84.61 17.88 M-100.35 35.99 C-94.65 30.6, -91.53 25.33, -84.61 17.88 M-101.93 43.9 C-93.36 36.08, -84.72 22.52, -71.75 9.18 M-101.93 43.9 C-91.7 33.48, -82.84 21.45, -71.75 9.18 M-102.85 51.05 C-91.47 37.94, -82.38 24.92, -64.79 7.28 M-102.85 51.05 C-93.67 40.43, -84.26 27.57, -64.79 7.28 M-103.11 57.45 C-91.32 44.9, -79.56 30.13, -56.53 3.86 M-103.11 57.45 C-85.62 37.81, -69.3 17.21, -56.53 3.86 M-102.71 63.09 C-89.51 48.21, -74.59 32.1, -50.88 3.47 M-102.71 63.09 C-82.88 40.65, -62.6 16.81, -50.88 3.47 M-102.32 68.73 C-85.91 50.65, -70.45 30.73, -44.58 2.32 M-102.32 68.73 C-80.96 43.16, -57.43 15.24, -44.58 2.32 M-101.92 74.38 C-83.17 49.41, -60.11 24.64, -38.94 1.92 M-101.92 74.38 C-79.09 51.01, -59.02 25.99, -38.94 1.92 M-102.18 80.77 C-87.23 66.05, -72.56 48.36, -32.64 0.77 M-102.18 80.77 C-76.36 49.92, -50.4 19.86, -32.64 0.77 M-101.79 86.42 C-80.24 64.76, -63.76 42.01, -27 0.38 M-101.79 86.42 C-78.45 58.26, -55.43 31.5, -27 0.38 M-101.4 92.06 C-82.13 66.19, -60.68 41.31, -20.7 -0.77 M-101.4 92.06 C-84.45 72.82, -67.86 53.68, -20.7 -0.77 M-100.34 96.95 C-81.78 74.32, -59.49 52.94, -14.4 -1.92 M-100.34 96.95 C-66.58 58.52, -33.22 19.65, -14.4 -1.92 M-99.95 102.59 C-74.6 70.21, -43.52 39.93, -8.76 -2.31 M-99.95 102.59 C-79.48 79.99, -59.17 55.63, -8.76 -2.31 M-98.9 107.48 C-66.62 72.8, -38.91 40.8, -3.11 -2.71 M-98.9 107.48 C-61.45 64.03, -24 21.63, -3.11 -2.71 M-98.5 113.12 C-64.02 73.76, -30.83 35.37, -0.1 -0.08 M-98.5 113.12 C-75.56 84.5, -50.4 57.99, -0.1 -0.08 M-97.45 118.01 C-76.84 94.04, -54.82 71.89, 2.92 2.54 M-97.45 118.01 C-74.46 91.57, -51.34 63.69, 2.92 2.54 M-97.06 123.65 C-67.7 91.52, -41.84 59.23, 7.91 2.9 M-97.06 123.65 C-64.39 84.54, -29.77 45.9, 7.91 2.9 M-96.01 128.54 C-61.75 88.73, -26.95 50.36, 12.24 4.02 M-96.01 128.54 C-53.87 81.23, -12.65 32.87, 12.24 4.02 M-95.61 134.19 C-61.91 93.86, -24.95 51.45, 17.23 4.38 M-95.61 134.19 C-70.1 105.76, -44.74 77.38, 17.23 4.38 M-94.56 139.07 C-70.21 108.07, -44.66 79.42, 22.21 4.74 M-94.56 139.07 C-50.79 86.23, -6.61 34.42, 22.21 4.74 M-93.51 143.96 C-67.06 114.96, -42.92 86.98, 26.55 5.85 M-93.51 143.96 C-53.92 97.22, -12.2 50.24, 26.55 5.85 M-92.46 148.85 C-60.3 113.02, -25.74 71.89, 31.53 6.21 M-92.46 148.85 C-51.45 101.28, -9.38 53.08, 31.53 6.21 M-91.41 153.74 C-44.68 98.09, 2.01 46.78, 36.52 6.57 M-91.41 153.74 C-45.84 100.75, 0.95 47.56, 36.52 6.57 M-90.36 158.63 C-41.07 104.83, 5.44 50.63, 42.16 6.18 M-90.36 158.63 C-63.01 127.2, -35.16 94.66, 42.16 6.18 M-89.31 163.52 C-43.28 112.42, -0.42 60.35, 46.49 7.29 M-89.31 163.52 C-61.29 129.78, -30.51 95.75, 46.49 7.29 M-88.26 168.4 C-40.84 114.13, 4.54 62.82, 50.17 9.16 M-88.26 168.4 C-41.63 110.91, 8.7 55.49, 50.17 9.16 M-87.21 173.29 C-35.73 117.63, 12.59 59.33, 54.5 10.28 M-87.21 173.29 C-37.69 118.03, 11.4 62.14, 54.5 10.28 M-86.16 178.18 C-52.91 139.87, -23.99 106.8, 58.17 12.15 M-86.16 178.18 C-31.5 116.02, 21.38 54.1, 58.17 12.15 M-85.11 183.07 C-32.25 120.87, 21.45 58.77, 61.19 14.77 M-85.11 183.07 C-29.13 115.58, 28.61 50.7, 61.19 14.77 M-84.06 187.96 C-29.47 125.37, 26.44 60.77, 64.87 16.64 M-84.06 187.96 C-49.3 147.43, -13.79 108.01, 64.87 16.64 M-83.01 192.85 C-43.95 147.1, -4.7 100.11, 67.23 20.02 M-83.01 192.85 C-32.52 134.3, 17.06 77.24, 67.23 20.02 M-81.96 197.73 C-31.31 141.61, 18.97 82.62, 70.25 22.64 M-81.96 197.73 C-22.41 128.82, 36.99 60.65, 70.25 22.64 M-80.91 202.62 C-22.13 132.9, 35.99 63.54, 72.61 26.02 M-80.91 202.62 C-25.78 141.55, 27.82 80.56, 72.61 26.02 M-79.85 207.51 C-24 140.75, 33.63 77.51, 74.32 30.15 M-79.85 207.51 C-44.08 163.68, -6.44 120.43, 74.32 30.15 M-78.8 212.4 C-39.07 170.02, -2.53 127.05, 76.03 34.29 M-78.8 212.4 C-25.16 150.26, 31 87.18, 76.03 34.29 M-77.75 217.29 C-21.66 155.74, 30.51 91.42, 77.08 39.18 M-77.75 217.29 C-36.83 168.02, 5.73 117.86, 77.08 39.18 M-78.01 223.69 C-16.95 156.77, 40.58 87.22, 77.47 44.82 M-78.01 223.69 C-38.04 177.04, 4.56 129.6, 77.47 44.82 M-76.96 228.57 C-34.49 183.37, 4.65 137.63, 78.52 49.71 M-76.96 228.57 C-28.01 171.16, 23.74 112.74, 78.52 49.71 M-75.26 232.71 C-24.6 173.26, 25.78 113.85, 80.23 53.84 M-75.26 232.71 C-24.78 174.75, 25.41 115.62, 80.23 53.84 M-74.21 237.6 C-32.99 192.51, 6.28 144.3, 79.97 60.24 M-74.21 237.6 C-27.19 183.22, 19.11 129.03, 79.97 60.24 M-72.5 241.73 C-34.14 197.53, 2.31 153.96, 79.71 66.64 M-72.5 241.73 C-12.37 172.26, 46.19 104.18, 79.71 66.64 M-71.45 246.62 C-33.69 201.77, 9.2 153.35, 80.1 72.28 M-71.45 246.62 C-26.86 196.68, 16.94 145.94, 80.1 72.28 M-70.4 251.51 C-26.77 200.5, 16.14 152.53, 79.18 79.43 M-70.4 251.51 C-35.58 211.58, -1.37 170.11, 79.18 79.43 M-68.69 255.64 C-12.72 194.42, 42.67 131.42, 78.27 86.59 M-68.69 255.64 C-35.22 216, -2.82 177.16, 78.27 86.59 M-67.64 260.53 C-31.77 219.45, 2.26 181.67, 78 92.98 M-67.64 260.53 C-32.34 219.78, 2.21 178.81, 78 92.98 M-65.93 264.66 C-13.03 203.47, 41 142.9, 77.09 100.14 M-65.93 264.66 C-31.77 224.2, 2.23 185.77, 77.09 100.14 M-64.88 269.55 C-31.01 230.78, 1.79 192.38, 76.17 107.29 M-64.88 269.55 C-16.28 216.43, 30.38 161.02, 76.17 107.29 M-63.83 274.44 C-21.75 226.07, 19.53 176.14, 75.25 114.44 M-63.83 274.44 C-22.47 228.51, 16.07 182.18, 75.25 114.44 M-61.47 277.82 C-20.2 231.39, 20.9 184.22, 74.99 120.84 M-61.47 277.82 C-30.97 242.58, -0.98 207.07, 74.99 120.84 M-59.76 281.95 C-23.53 237.94, 14.39 195.1, 73.42 128.75 M-59.76 281.95 C-16.09 232.59, 27.02 184.2, 73.42 128.75 M-58.06 286.09 C-4.85 228.51, 46.71 170.49, 71.84 136.65 M-58.06 286.09 C-11.31 233.66, 34.39 179.7, 71.84 136.65 M-56.35 290.22 C-29.2 256.27, 0.02 223.68, 70.93 143.81 M-56.35 290.22 C-10.11 236.16, 38.2 181.22, 70.93 143.81 M-54.64 294.35 C-11.84 247.45, 30.29 198.95, 69.35 151.71 M-54.64 294.35 C-31.03 265.9, -5.22 237.24, 69.35 151.71 M-52.94 298.49 C-5.53 244.54, 40.78 190.5, 68.43 158.87 M-52.94 298.49 C-4.21 244.09, 42.67 188.44, 68.43 158.87 M-51.23 302.62 C-14.82 261.34, 22.42 219.97, 66.86 166.77 M-51.23 302.62 C-12.33 258.01, 25.17 213.48, 66.86 166.77 M-49.52 306.75 C-28.59 280.97, -3.85 253.78, 65.29 174.68 M-49.52 306.75 C-20.27 272.95, 9.88 237.24, 65.29 174.68 M-47.82 310.89 C-10.32 268.18, 28.05 222.78, 64.37 181.83 M-47.82 310.89 C-11.14 269.91, 26.61 226.3, 64.37 181.83 M-45.45 314.27 C-18.85 284.46, 8.7 256.56, 62.8 189.74 M-45.45 314.27 C-3.94 267.45, 34.93 221.66, 62.8 189.74 M-43.09 317.65 C-18.4 286.01, 10.59 258.68, 61.88 196.89 M-43.09 317.65 C-9.52 279.34, 23.71 242.15, 61.88 196.89 M-40.73 321.02 C-17.18 289.94, 10.54 262.27, 61.62 203.29 M-40.73 321.02 C-18.48 296.1, 2.96 269.83, 61.62 203.29 M-38.37 324.4 C-10.02 291.87, 15.12 261.65, 60.04 211.2 M-38.37 324.4 C-16.87 301.27, 5.41 275.91, 60.04 211.2 M-35.35 327.03 C-4.58 294.73, 20.88 260.39, 57.81 219.86 M-35.35 327.03 C-12.66 302.11, 9.64 276.77, 57.81 219.86 M-31.67 328.9 C-11.56 307.21, 7.11 285.69, 55.58 228.52 M-31.67 328.9 C-6.18 299.94, 17.45 271.08, 55.58 228.52 M-28.65 331.52 C-4.02 303.9, 20.79 274.87, 54.01 236.43 M-28.65 331.52 C0.71 297.43, 29.72 263.97, 54.01 236.43 M-23.67 331.88 C0.98 300.45, 26.32 273.39, 47.19 250.37 M-23.67 331.88 C4.01 301.69, 30.4 270.71, 47.19 250.37 M-19.33 333 C-5.25 320.1, 8.64 305.49, 44.3 259.79 M-19.33 333 C-3.87 314.65, 14.12 295.15, 44.3 259.79 M-15.66 334.87 C3.08 311.73, 23.14 291.39, 41.42 269.21 M-15.66 334.87 C0.51 315.57, 16.78 297.26, 41.42 269.21 M-8.7 332.96 C0.12 319.27, 11.34 308.34, 40.5 276.36 M-8.7 332.96 C6.08 316.37, 20.63 300.22, 40.5 276.36 M-3.06 332.57 C5.58 321.32, 12.89 311.44, 33.68 290.3 M-3.06 332.57 C11.79 316.52, 25.58 301.17, 33.68 290.3" stroke="#000000" stroke-width="0.5" fill="none"></path><path d="M-0.71 0.94 C12.09 7.68, 70.94 -6.52, 77.09 40.9 C83.25 88.32, 57.28 240.05, 36.22 285.45 C15.17 330.84, -26.07 353.41, -49.25 313.3 C-72.44 273.18, -110.19 97.68, -102.86 44.75 C-95.54 -8.19, -21.54 3.75, -5.31 -4.32 M1.11 0.39 C13.78 7.27, 70.57 -5.46, 76.37 42.29 C82.17 90.04, 56.88 242.07, 35.91 286.91 C14.95 331.74, -26.14 351.58, -49.42 311.33 C-72.71 271.07, -111.31 98.19, -103.79 45.37 C-96.26 -7.45, -20.67 2.79, -4.25 -5.59" stroke="#000000" stroke-width="1" fill="none"></path></g></g><mask></mask><g stroke-linecap="round"><g transform="translate(284.13877471811065 329.71792549468546) rotate(7.182594496707925 53.020683726193965 65.87424051115886)"><path d="M0.43 -0.27 C18.36 8.33, 101.95 30.38, 106.91 52.57 C111.87 74.76, 42.68 119.59, 30.21 132.86 M-0.81 -1.46 C17.11 6.68, 100.83 28.5, 106.42 50.59 C112 72.69, 45.56 117.28, 32.68 131.1" stroke="#000000" stroke-width="1" fill="none"></path></g></g><mask></mask><g stroke-linecap="round"><g transform="translate(125.4567018736816 343.25514365845856) rotate(348.60478902668814 -58.14443159775328 67.52662677368721)"><path d="M0.87 0.27 C-18.72 11.97, -111.55 47.36, -117.08 69.9 C-122.61 92.44, -46.16 124.72, -32.33 135.5 M-0.14 -0.63 C-19.37 10.78, -109.38 46.02, -114.78 68.36 C-120.18 90.7, -45.98 122.21, -32.55 133.39" stroke="#000000" stroke-width="1" fill="none"></path></g></g><mask></mask><g stroke-linecap="round"><g transform="translate(261.73782622612634 210.5408854770253) rotate(0 -64.69559432519418 32.80479207115991)"><path d="M-0.79 1.11 C-10.1 5.95, -40.4 23.33, -54.98 29.31 C-69.57 35.29, -75.38 36.25, -88.29 37 C-101.2 37.75, -135.16 28.89, -132.44 33.81 C-129.73 38.73, -94.39 70.98, -72.01 66.52 C-49.63 62.05, -10.4 16.91, 1.83 7.01 M1 0.65 C-8.46 5.1, -40.32 21.19, -55.39 27.43 C-70.46 33.66, -76.54 36.82, -89.41 38.09 C-102.29 39.35, -135.35 30.15, -132.63 35.03 C-129.92 39.91, -95.75 71.7, -73.13 67.38 C-50.52 63.06, -9.41 18.86, 3.05 9.12" stroke="#000000" stroke-width="1" fill="none"></path></g></g><mask></mask><g stroke-linecap="round" transform="translate(200.46001914767476 154.7461541327093) rotate(0 22.97456631128989 25.51201009550482)"><path d="M27.35 -0.31 C31.98 0.58, 37.83 6.49, 40.88 11.06 C43.93 15.63, 45.75 21.77, 45.64 27.12 C45.52 32.46, 43.54 39.07, 40.2 43.15 C36.86 47.22, 30.5 51.08, 25.59 51.56 C20.68 52.03, 14.8 49.13, 10.76 46 C6.71 42.87, 2.94 38.01, 1.35 32.79 C-0.24 27.57, -0.59 19.57, 1.21 14.68 C3.01 9.79, 7.1 5.63, 12.16 3.45 C17.22 1.28, 28.01 1.52, 31.55 1.61 C35.1 1.7, 33.66 3.47, 33.41 3.99 M18.46 0.51 C22.88 -0.93, 28.68 -0.07, 32.75 2.48 C36.82 5.03, 40.88 10.66, 42.87 15.83 C44.85 20.99, 46.04 28.36, 44.67 33.47 C43.31 38.58, 38.51 43.36, 34.66 46.48 C30.81 49.59, 26.13 52.93, 21.59 52.16 C17.06 51.39, 10.79 46.03, 7.44 41.86 C4.09 37.68, 2.18 32.3, 1.49 27.1 C0.81 21.89, 0.42 14.78, 3.31 10.61 C6.19 6.45, 16.56 3.75, 18.81 2.11 C21.06 0.46, 16.77 0.76, 16.8 0.74" stroke="none" stroke-width="0" fill="#ffffff"></path><path d="M16.7 1.58 C21.29 -0.13, 28.62 -0.16, 32.96 1.83 C37.3 3.82, 40.82 8.42, 42.75 13.51 C44.68 18.6, 45.49 26.93, 44.54 32.35 C43.6 37.78, 41.07 42.99, 37.08 46.04 C33.09 49.09, 25.66 51.07, 20.63 50.64 C15.6 50.21, 10.24 47.11, 6.91 43.46 C3.58 39.81, 1.1 34.02, 0.65 28.75 C0.21 23.48, 0.59 16.74, 4.24 11.86 C7.89 6.97, 18.67 1.2, 22.54 -0.56 C26.41 -2.33, 27.44 0.71, 27.46 1.25 M26.71 -1.13 C31.59 -0.93, 37.73 4.03, 41.08 8.35 C44.43 12.67, 46.79 19.02, 46.79 24.77 C46.8 30.53, 44.29 38.82, 41.13 42.89 C37.96 46.95, 32.59 48.36, 27.81 49.18 C23.03 50, 16.99 50.12, 12.43 47.81 C7.87 45.49, 2.13 40.55, 0.44 35.3 C-1.25 30.05, 0.52 21.61, 2.3 16.3 C4.08 11, 7.15 6.2, 11.12 3.47 C15.08 0.74, 23.49 0.46, 26.1 -0.1 C28.7 -0.66, 26.89 -0.17, 26.76 0.11" stroke="#000000" stroke-width="1" fill="none"></path></g><g stroke-linecap="round" transform="translate(211.7096634371046 167.00086969840277) rotate(0 7.016184921412787 9.354913228549776)"><path d="M14.03 9.35 C14.03 9.9, 14 10.45, 13.93 10.98 C13.86 11.51, 13.75 12.05, 13.61 12.55 C13.47 13.06, 13.3 13.56, 13.09 14.03 C12.89 14.5, 12.65 14.95, 12.39 15.37 C12.13 15.78, 11.84 16.17, 11.53 16.52 C11.21 16.87, 10.88 17.19, 10.52 17.46 C10.17 17.73, 9.8 17.96, 9.42 18.15 C9.03 18.33, 8.63 18.47, 8.23 18.57 C7.83 18.66, 7.42 18.71, 7.02 18.71 C6.61 18.71, 6.2 18.66, 5.8 18.57 C5.4 18.47, 5 18.33, 4.62 18.15 C4.23 17.96, 3.86 17.73, 3.51 17.46 C3.16 17.19, 2.82 16.87, 2.51 16.52 C2.2 16.17, 1.9 15.78, 1.64 15.37 C1.38 14.95, 1.14 14.5, 0.94 14.03 C0.74 13.56, 0.56 13.06, 0.42 12.55 C0.28 12.05, 0.18 11.51, 0.11 10.98 C0.04 10.45, 0 9.9, 0 9.35 C0 8.81, 0.04 8.26, 0.11 7.73 C0.18 7.2, 0.28 6.66, 0.42 6.16 C0.56 5.65, 0.74 5.15, 0.94 4.68 C1.14 4.21, 1.38 3.76, 1.64 3.34 C1.9 2.93, 2.2 2.54, 2.51 2.19 C2.82 1.84, 3.16 1.52, 3.51 1.25 C3.86 0.98, 4.23 0.75, 4.62 0.56 C5 0.38, 5.4 0.24, 5.8 0.14 C6.2 0.05, 6.61 0, 7.02 0 C7.42 0, 7.83 0.05, 8.23 0.14 C8.63 0.24, 9.03 0.38, 9.42 0.56 C9.8 0.75, 10.17 0.98, 10.52 1.25 C10.88 1.52, 11.21 1.84, 11.53 2.19 C11.84 2.54, 12.13 2.93, 12.39 3.34 C12.65 3.76, 12.89 4.21, 13.09 4.68 C13.3 5.15, 13.47 5.65, 13.61 6.16 C13.75 6.66, 13.86 7.2, 13.93 7.73 C14 8.26, 14.01 9.08, 14.03 9.35 C14.05 9.63, 14.05 9.08, 14.03 9.35" stroke="none" stroke-width="0" fill="#000000"></path><path d="M14.03 9.35 C14.03 9.9, 14 10.45, 13.93 10.98 C13.86 11.51, 13.75 12.05, 13.61 12.55 C13.47 13.06, 13.3 13.56, 13.09 14.03 C12.89 14.5, 12.65 14.95, 12.39 15.37 C12.13 15.78, 11.84 16.17, 11.53 16.52 C11.21 16.87, 10.88 17.19, 10.52 17.46 C10.17 17.73, 9.8 17.96, 9.42 18.15 C9.03 18.33, 8.63 18.47, 8.23 18.57 C7.83 18.66, 7.42 18.71, 7.02 18.71 C6.61 18.71, 6.2 18.66, 5.8 18.57 C5.4 18.47, 5 18.33, 4.62 18.15 C4.23 17.96, 3.86 17.73, 3.51 17.46 C3.16 17.19, 2.82 16.87, 2.51 16.52 C2.2 16.17, 1.9 15.78, 1.64 15.37 C1.38 14.95, 1.14 14.5, 0.94 14.03 C0.74 13.56, 0.56 13.06, 0.42 12.55 C0.28 12.05, 0.18 11.51, 0.11 10.98 C0.04 10.45, 0 9.9, 0 9.35 C0 8.81, 0.04 8.26, 0.11 7.73 C0.18 7.2, 0.28 6.66, 0.42 6.16 C0.56 5.65, 0.74 5.15, 0.94 4.68 C1.14 4.21, 1.38 3.76, 1.64 3.34 C1.9 2.93, 2.2 2.54, 2.51 2.19 C2.82 1.84, 3.16 1.52, 3.51 1.25 C3.86 0.98, 4.23 0.75, 4.62 0.56 C5 0.38, 5.4 0.24, 5.8 0.14 C6.2 0.05, 6.61 0, 7.02 0 C7.42 0, 7.83 0.05, 8.23 0.14 C8.63 0.24, 9.03 0.38, 9.42 0.56 C9.8 0.75, 10.17 0.98, 10.52 1.25 C10.88 1.52, 11.21 1.84, 11.53 2.19 C11.84 2.54, 12.13 2.93, 12.39 3.34 C12.65 3.76, 12.89 4.21, 13.09 4.68 C13.3 5.15, 13.47 5.65, 13.61 6.16 C13.75 6.66, 13.86 7.2, 13.93 7.73 C14 8.26, 14.01 9.08, 14.03 9.35 C14.05 9.63, 14.05 9.08, 14.03 9.35" stroke="#000000" stroke-width="1" fill="none"></path></g><g stroke-linecap="round" transform="translate(125.4976976923499 165.54060429837637) rotate(0 22.97456631128989 25.51201009550482)"><path d="M11.97 3.17 C16.13 0.35, 23.44 -0.46, 28.27 0.78 C33.11 2.01, 37.98 6.45, 40.98 10.58 C43.98 14.72, 46.37 20.28, 46.26 25.6 C46.16 30.92, 43.82 38.45, 40.35 42.51 C36.89 46.57, 30.47 49.08, 25.47 49.97 C20.46 50.85, 14.24 50.55, 10.32 47.8 C6.4 45.05, 3.3 38.61, 1.94 33.44 C0.58 28.27, 0.23 21.83, 2.17 16.78 C4.11 11.73, 11.52 5.6, 13.57 3.14 C15.61 0.69, 14.34 1.72, 14.41 2.04 M20.56 0.35 C25.28 -0.11, 32.56 2.51, 36.55 5.69 C40.54 8.86, 43.14 13.94, 44.52 19.4 C45.89 24.86, 46.71 33.7, 44.82 38.45 C42.93 43.21, 37.69 45.99, 33.17 47.93 C28.64 49.88, 22.82 51.47, 17.69 50.11 C12.56 48.76, 5.13 44.19, 2.39 39.8 C-0.36 35.42, 0.56 29.37, 1.21 23.81 C1.85 18.24, 2.7 10.57, 6.25 6.41 C9.8 2.26, 19.81 0.08, 22.5 -1.11 C25.2 -2.29, 22.65 -1.57, 22.4 -0.71" stroke="none" stroke-width="0" fill="#ffffff"></path><path d="M28.41 0.27 C32.74 1.56, 38.24 7.35, 41.22 11.98 C44.21 16.61, 46.85 22.81, 46.33 28.06 C45.81 33.31, 41.77 39.74, 38.12 43.47 C34.48 47.2, 29.15 49.92, 24.47 50.45 C19.79 50.98, 13.95 49.67, 10.05 46.63 C6.15 43.6, 2.28 37.74, 1.09 32.27 C-0.11 26.8, 0.77 18.78, 2.86 13.82 C4.95 8.86, 8.72 4.46, 13.63 2.5 C18.53 0.54, 28.88 1.9, 32.31 2.05 C35.74 2.2, 34.3 2.99, 34.2 3.4 M13.45 2.67 C17.37 0.33, 23.68 1.12, 28.37 2.15 C33.07 3.19, 38.63 4.77, 41.62 8.88 C44.61 12.99, 46.84 21.04, 46.34 26.79 C45.83 32.54, 41.83 39.58, 38.58 43.4 C35.33 47.23, 31.5 49.2, 26.83 49.73 C22.15 50.27, 14.91 49.46, 10.56 46.59 C6.2 43.72, 2.08 37.83, 0.71 32.53 C-0.67 27.24, 0.44 19.98, 2.3 14.81 C4.15 9.64, 10.2 3.47, 11.84 1.53 C13.48 -0.41, 11.72 2.74, 12.13 3.18" stroke="#000000" stroke-width="1" fill="none"></path></g><g stroke-linecap="round" transform="translate(136.7473419817652 177.7953198640662) rotate(0 7.016184921412787 9.354913228549776)"><path d="M14.03 9.35 C14.03 9.9, 14 10.45, 13.93 10.98 C13.86 11.51, 13.75 12.05, 13.61 12.55 C13.47 13.06, 13.3 13.56, 13.09 14.03 C12.89 14.5, 12.65 14.95, 12.39 15.37 C12.13 15.78, 11.84 16.17, 11.53 16.52 C11.21 16.87, 10.88 17.19, 10.52 17.46 C10.17 17.73, 9.8 17.96, 9.42 18.15 C9.03 18.33, 8.63 18.47, 8.23 18.57 C7.83 18.66, 7.42 18.71, 7.02 18.71 C6.61 18.71, 6.2 18.66, 5.8 18.57 C5.4 18.47, 5 18.33, 4.62 18.15 C4.23 17.96, 3.86 17.73, 3.51 17.46 C3.16 17.19, 2.82 16.87, 2.51 16.52 C2.2 16.17, 1.9 15.78, 1.64 15.37 C1.38 14.95, 1.14 14.5, 0.94 14.03 C0.74 13.56, 0.56 13.06, 0.42 12.55 C0.28 12.05, 0.18 11.51, 0.11 10.98 C0.04 10.45, 0 9.9, 0 9.35 C0 8.81, 0.04 8.26, 0.11 7.73 C0.18 7.2, 0.28 6.66, 0.42 6.16 C0.56 5.65, 0.74 5.15, 0.94 4.68 C1.14 4.21, 1.38 3.76, 1.64 3.34 C1.9 2.93, 2.2 2.54, 2.51 2.19 C2.82 1.84, 3.16 1.52, 3.51 1.25 C3.86 0.98, 4.23 0.75, 4.62 0.56 C5 0.38, 5.4 0.24, 5.8 0.14 C6.2 0.05, 6.61 0, 7.02 0 C7.42 0, 7.83 0.05, 8.23 0.14 C8.63 0.24, 9.03 0.38, 9.42 0.56 C9.8 0.75, 10.17 0.98, 10.52 1.25 C10.88 1.52, 11.21 1.84, 11.53 2.19 C11.84 2.54, 12.13 2.93, 12.39 3.34 C12.65 3.76, 12.89 4.21, 13.09 4.68 C13.3 5.15, 13.47 5.65, 13.61 6.16 C13.75 6.66, 13.86 7.2, 13.93 7.73 C14 8.26, 14.01 9.08, 14.03 9.35 C14.05 9.63, 14.05 9.08, 14.03 9.35" stroke="none" stroke-width="0" fill="#000000"></path><path d="M14.03 9.35 C14.03 9.9, 14 10.45, 13.93 10.98 C13.86 11.51, 13.75 12.05, 13.61 12.55 C13.47 13.06, 13.3 13.56, 13.09 14.03 C12.89 14.5, 12.65 14.95, 12.39 15.37 C12.13 15.78, 11.84 16.17, 11.53 16.52 C11.21 16.87, 10.88 17.19, 10.52 17.46 C10.17 17.73, 9.8 17.96, 9.42 18.15 C9.03 18.33, 8.63 18.47, 8.23 18.57 C7.83 18.66, 7.42 18.71, 7.02 18.71 C6.61 18.71, 6.2 18.66, 5.8 18.57 C5.4 18.47, 5 18.33, 4.62 18.15 C4.23 17.96, 3.86 17.73, 3.51 17.46 C3.16 17.19, 2.82 16.87, 2.51 16.52 C2.2 16.17, 1.9 15.78, 1.64 15.37 C1.38 14.95, 1.14 14.5, 0.94 14.03 C0.74 13.56, 0.56 13.06, 0.42 12.55 C0.28 12.05, 0.18 11.51, 0.11 10.98 C0.04 10.45, 0 9.9, 0 9.35 C0 8.81, 0.04 8.26, 0.11 7.73 C0.18 7.2, 0.28 6.66, 0.42 6.16 C0.56 5.65, 0.74 5.15, 0.94 4.68 C1.14 4.21, 1.38 3.76, 1.64 3.34 C1.9 2.93, 2.2 2.54, 2.51 2.19 C2.82 1.84, 3.16 1.52, 3.51 1.25 C3.86 0.98, 4.23 0.75, 4.62 0.56 C5 0.38, 5.4 0.24, 5.8 0.14 C6.2 0.05, 6.61 0, 7.02 0 C7.42 0, 7.83 0.05, 8.23 0.14 C8.63 0.24, 9.03 0.38, 9.42 0.56 C9.8 0.75, 10.17 0.98, 10.52 1.25 C10.88 1.52, 11.21 1.84, 11.53 2.19 C11.84 2.54, 12.13 2.93, 12.39 3.34 C12.65 3.76, 12.89 4.21, 13.09 4.68 C13.3 5.15, 13.47 5.65, 13.61 6.16 C13.75 6.66, 13.86 7.2, 13.93 7.73 C14 8.26, 14.01 9.08, 14.03 9.35 C14.05 9.63, 14.05 9.08, 14.03 9.35" stroke="#000000" stroke-width="1" fill="none"></path></g></svg>